<svg width="156" height="70" viewBox="0 0 156 70" fill="none" xmlns="http://www.w3.org/2000/svg">
<path d="M27.9772 39.7912L17.9282 29.8308V16.2046H26.8363L32.322 22.3062H19.069L32.322 35.4742L27.9772 39.7912Z" fill="#024FD7"/>
<path d="M32.3217 50.2341L27.9769 54.5511L17.928 44.5666V35.9326L19.0688 37.0661L22.6126 40.5872L32.3217 50.2341Z" fill="#024FD7"/>
<path d="M14.2391 43.6749V25.7558L8.04956 19.606V38.1521L14.2391 44.3019V43.6749Z" fill="#024FD7"/>
<path d="M42.2254 47.0741V29.1792L36.0359 23.0293V41.5754L42.2254 47.7253V47.0741Z" fill="#024FD7"/>
<path d="M60.4541 33.3274C58.9978 33.3274 57.7599 32.9656 56.7404 32.218C55.7209 31.4945 55.017 30.578 54.6287 29.5169L56.9831 28.8175C57.2501 29.5168 57.687 30.0715 58.3181 30.5057C58.9492 30.9398 59.7017 31.1568 60.5755 31.1568C61.2794 31.1568 61.8619 30.988 62.3231 30.6745C62.76 30.361 62.9785 29.9992 62.9785 29.5651C62.9785 29.2275 62.8571 28.938 62.5901 28.6969C62.3474 28.4557 61.9105 28.2386 61.3037 28.0457L58.0997 27.0328C57.2258 26.7675 56.5219 26.3575 56.0122 25.8028C55.5025 25.2722 55.2355 24.5969 55.2597 23.8252C55.2597 22.8364 55.6724 21.9923 56.5462 21.2929C57.3958 20.5935 58.488 20.2559 59.7745 20.2559C61.0852 20.2559 62.226 20.5694 63.1969 21.1723C64.1679 21.7752 64.8475 22.547 65.1873 23.4634L62.9057 24.1146C62.6387 23.6081 62.226 23.1982 61.6678 22.8846C61.1095 22.5711 60.5027 22.4023 59.7988 22.4023C59.1919 22.4023 58.7308 22.5229 58.3424 22.7882C57.954 23.0535 57.7841 23.367 57.7841 23.7528C57.7841 24.3075 58.1968 24.6934 58.9978 24.9346L62.129 25.9475C63.2212 26.2852 64.0708 26.6951 64.6533 27.2016C65.2359 27.7081 65.5271 28.4316 65.5271 29.3721C65.5271 30.4574 65.066 31.3739 64.1436 32.1215C63.2212 32.8691 62.0076 33.255 60.5269 33.255L60.4541 33.3274Z" fill="#024FD7"/>
<path d="M72.6633 24.0429C73.8284 24.0429 74.7265 24.4047 75.3333 25.1041C75.9401 25.8276 76.2556 26.7923 76.2556 28.0223V33.3039H73.8769V28.4564C73.8769 27.757 73.707 27.2023 73.3915 26.7923C73.0759 26.3823 72.5905 26.1894 71.9351 26.1894C71.2797 26.1894 70.7457 26.4305 70.3574 26.9129C69.9447 27.3952 69.7506 28.0223 69.7506 28.8181V33.2798H67.3718V20.2324H69.7506V25.3694C70.4787 24.5012 71.4496 24.0429 72.6633 24.0429Z" fill="#024FD7"/>
<path d="M82.4209 33.3282C81.1587 33.3282 80.0907 32.87 79.2169 31.9535C78.3673 31.0371 77.9304 29.9036 77.9304 28.553C77.9304 27.1783 78.3673 26.0448 79.2169 25.1284C80.0664 24.2119 81.1587 23.7778 82.4209 23.7778C83.6588 23.7778 84.6297 24.2119 85.3336 25.1284V24.0431H87.7366V33.0871H85.3336V31.9777C84.654 32.87 83.6588 33.3282 82.4209 33.3282ZM82.8335 31.2059C83.5617 31.2059 84.1685 30.9647 84.6782 30.4583C85.188 29.9518 85.4307 29.3248 85.4307 28.5289C85.4307 27.7813 85.188 27.1542 84.6782 26.6478C84.1685 26.1413 83.5617 25.9001 82.8335 25.9001C82.0811 25.9001 81.4742 26.1413 80.9888 26.6478C80.5033 27.1542 80.2606 27.7813 80.2606 28.553C80.2606 29.3489 80.5033 29.9759 80.9888 30.4824C81.4742 30.9647 82.0811 31.23 82.8335 31.2059Z" fill="#024FD7"/>
<path d="M92.4216 25.6347C93.0284 24.4771 94.0236 23.9706 95.4314 24.1636V26.3824C94.4362 26.2135 93.6838 26.3824 93.1983 26.8888C92.6886 27.3712 92.4459 28.2153 92.4459 29.397V33.3281H90.0671V24.2842H92.4459L92.4216 25.6347Z" fill="#024FD7"/>
<path d="M100.407 29.8543L99.3391 31.036V33.3272H96.9846V20.2798H99.3633V28.0214L102.64 24.2832H105.407L101.912 28.1661L105.771 33.3031H103.053L100.407 29.8543Z" fill="#024FD7"/>
<path d="M115.748 33.3284C114.437 33.3284 113.369 32.8943 112.495 32.0019C111.645 31.1096 111.208 30.0002 111.208 28.6979C111.208 27.3714 111.645 26.2862 112.495 25.3938C113.345 24.5015 114.437 24.0674 115.748 24.0674C116.597 24.0674 117.374 24.2603 118.029 24.6221C118.685 24.9838 119.219 25.4903 119.607 26.1415V24.2844H120.481V33.1354H119.607V31.2543C119.243 31.9055 118.709 32.4119 118.053 32.7978C117.398 33.1837 116.621 33.3043 115.748 33.3284ZM115.845 32.5325C116.888 32.5325 117.786 32.1707 118.515 31.4231C119.243 30.6755 119.631 29.7832 119.631 28.6979C119.631 27.6126 119.267 26.7203 118.515 25.9726C117.762 25.225 116.888 24.8633 115.845 24.8633C114.752 24.8633 113.854 25.225 113.15 25.9485C112.446 26.672 112.107 27.5885 112.107 28.6738C112.107 29.7832 112.446 30.6755 113.175 31.399C113.879 32.1225 114.777 32.4843 115.869 32.4843V32.5325H115.845Z" fill="#024FD7"/>
<path d="M127.763 24.2598C128.855 24.2598 129.729 24.5974 130.384 25.2727C131.04 25.948 131.355 26.8885 131.355 28.0944V33.3037H130.481V28.1667C130.481 27.202 130.239 26.4303 129.753 25.8997C129.268 25.3692 128.564 25.0797 127.666 25.0797C126.646 25.0797 125.821 25.4174 125.19 26.1168C124.559 26.8162 124.243 27.7085 124.243 28.8179V33.3037H123.369V24.4527H124.243V26.2856C124.559 25.6586 125.044 25.1762 125.627 24.8145C126.209 24.4527 126.962 24.2598 127.763 24.2598Z" fill="#024FD7"/>
<path d="M142.836 20.0874V33.1348H141.962V31.2537C141.598 31.9048 141.064 32.4113 140.408 32.7972C139.753 33.183 138.976 33.3518 138.102 33.3518C136.792 33.3518 135.724 32.9177 134.85 32.0254C134 31.1331 133.563 30.0237 133.563 28.7214C133.563 27.3949 134 26.3096 134.85 25.4173C135.699 24.525 136.792 24.0909 138.102 24.0909C138.952 24.0909 139.729 24.2838 140.384 24.6456C141.039 25.0073 141.573 25.5138 141.962 26.1649V20.1115L142.836 20.0874ZM138.2 32.556C139.243 32.556 140.141 32.1942 140.87 31.4466C141.598 30.699 141.986 29.8066 141.986 28.7214C141.986 27.6602 141.622 26.7437 140.87 25.9961C140.141 25.2485 139.243 24.8867 138.2 24.8867C137.107 24.8867 136.209 25.2485 135.505 25.972C134.801 26.6955 134.462 27.612 134.462 28.6972C134.462 29.8066 134.801 30.699 135.53 31.4225C136.233 32.146 137.132 32.5077 138.224 32.5077V32.556H138.2Z" fill="#024FD7"/>
<path d="M66.0612 38.1748V50.6916H63.5854V45.4341H57.8328V50.6916H55.3569V38.1748H57.8328V43.2153H63.5854V38.1748H66.0612Z" fill="#024FD7"/>
<path d="M72.1782 50.692C70.916 50.692 69.848 50.2338 68.9742 49.3173C68.1247 48.4009 67.6877 47.2674 67.6877 45.9168C67.6877 44.5421 68.1247 43.4086 68.9742 42.4922C69.8237 41.5757 70.916 41.1416 72.1782 41.1416C73.4161 41.1416 74.387 41.5757 75.0909 42.4922V41.4069H77.4939V50.4508H75.0909V49.3414C74.387 50.2338 73.4161 50.692 72.1782 50.692ZM72.5908 48.5697C73.319 48.5697 73.9258 48.3285 74.4356 47.822C74.9453 47.3156 75.188 46.6885 75.188 45.8927C75.188 45.145 74.9453 44.518 74.4356 44.0115C73.9258 43.5051 73.319 43.2639 72.5908 43.2639C71.8384 43.2639 71.2316 43.5051 70.7461 44.0115C70.2607 44.518 70.0179 45.145 70.0179 45.9168C70.0179 46.7127 70.2607 47.3397 70.7461 47.8462C71.2316 48.3285 71.8384 48.5697 72.5908 48.5697Z" fill="#024FD7"/>
<path d="M93.1742 41.6479L90.0188 50.6919H87.81L85.9409 45.0002L84.0719 50.6919H81.8631L78.7319 41.6479H81.2078L83.101 47.7014L84.97 41.6479H86.9604L88.8537 47.7014L90.747 41.6479H93.1742Z" fill="#024FD7"/>
<path d="M97.8342 47.2195L96.7662 48.4013V50.6924H94.3875V37.645H96.7662V45.3866L100.043 41.6485H102.81L99.3148 45.5313L103.174 50.6683H100.48L97.8342 47.2195Z" fill="#024FD7"/>
<path d="M118.709 39.0189H113.854V50.6675H112.932V39.0189H108.053V38.1748H118.684V39.0189H118.709Z" fill="#024FD7"/>
<path d="M122.495 50.6918C121.136 50.6918 120.044 50.2577 119.17 49.4136C118.296 48.5695 117.859 47.436 117.859 46.0372C117.859 44.7108 118.272 43.6255 119.121 42.7332C119.947 41.8408 121.039 41.4067 122.35 41.4067C123.709 41.4067 124.777 41.8167 125.554 42.6608C126.33 43.4808 126.719 44.542 126.719 45.7961C126.719 46.0131 126.719 46.2061 126.694 46.3508H118.757C118.806 47.4119 119.17 48.256 119.825 48.9072C120.481 49.5583 121.379 49.8719 122.447 49.8719C123.248 49.8719 123.927 49.6789 124.51 49.2931C125.092 48.9072 125.505 48.4489 125.748 47.8701L126.597 48.1113C126.233 48.8589 125.699 49.4619 125.02 49.9442C124.389 50.4507 123.515 50.6918 122.495 50.6918ZM125.845 45.5549C125.772 44.542 125.432 43.7461 124.825 43.1432C124.219 42.5402 123.393 42.2267 122.35 42.2267C121.354 42.2267 120.529 42.5403 119.874 43.1914C119.218 43.8426 118.854 44.6143 118.781 45.5549H125.845Z" fill="#024FD7"/>
<path d="M132.981 50.6919C131.646 50.6919 130.554 50.2578 129.68 49.3655C128.806 48.4732 128.369 47.3638 128.369 46.0373C128.369 44.7109 128.806 43.6256 129.68 42.7574C130.554 41.8892 131.646 41.4551 132.981 41.4551C134.001 41.4551 134.874 41.7204 135.578 42.2509C136.282 42.7815 136.768 43.3845 136.962 44.0356L136.137 44.2768C135.942 43.7462 135.554 43.2639 134.972 42.878C134.389 42.468 133.709 42.2751 132.933 42.2751C131.84 42.2751 130.942 42.6609 130.263 43.3845C129.583 44.108 129.219 45.0244 129.219 46.0856C129.219 47.1226 129.559 48.0391 130.263 48.7626C130.967 49.4861 131.84 49.872 132.957 49.872C133.709 49.872 134.389 49.679 134.996 49.2932C135.578 48.9073 135.967 48.4491 136.161 47.9185L136.986 48.1355C136.792 48.8108 136.331 49.3896 135.603 49.9202C134.874 50.4267 134.025 50.6919 132.981 50.6919V50.6919Z" fill="#024FD7"/>
<path d="M143.661 41.6241C144.753 41.6241 145.627 41.9617 146.283 42.637C146.938 43.3123 147.254 44.2528 147.254 45.4587V50.668H146.38V45.531C146.38 44.5663 146.137 43.7946 145.652 43.264C145.166 42.7335 144.462 42.444 143.564 42.444C142.545 42.444 141.719 42.7817 141.088 43.4811C140.457 44.1805 140.142 45.0728 140.142 46.1822V50.668H139.268V37.6206H140.142V43.6258C140.457 42.9987 140.943 42.5164 141.525 42.1546C142.108 41.7929 142.836 41.6241 143.661 41.6241Z" fill="#024FD7"/>
<path d="M150.069 50.6675C150.565 50.6675 150.967 50.268 150.967 49.7752C150.967 49.2823 150.565 48.8828 150.069 48.8828C149.573 48.8828 149.171 49.2823 149.171 49.7752C149.171 50.268 149.573 50.6675 150.069 50.6675Z" fill="#024FD7"/>
</svg>
